<svg width="38" height="38" viewBox="0 0 38 38" fill="none" xmlns="http://www.w3.org/2000/svg">
<g filter="url(#filter0_d_341_645)">
<circle cx="19" cy="15" r="15" fill="white"/>
<path d="M25.9961 11.4915C26.6854 10.9745 27.3058 10.3541 27.7884 9.63028C27.168 9.90602 26.4442 10.1128 25.7204 10.1818C26.4786 9.73369 27.0301 9.04435 27.3058 8.18267C26.6165 8.59628 25.8238 8.90648 25.031 9.07881C24.3417 8.35501 23.4111 7.94141 22.3771 7.94141C20.378 7.94141 18.758 9.56135 18.758 11.5604C18.758 11.8362 18.7925 12.1119 18.8614 12.3876C15.8628 12.2153 13.1744 10.7677 11.3821 8.59628C11.0719 9.11328 10.8996 9.73369 10.8996 10.423C10.8996 11.6638 11.52 12.7668 12.5195 13.4216C11.9336 13.3872 11.3477 13.2493 10.8651 12.9736V13.008C10.8651 14.7659 12.1059 16.2135 13.7603 16.5581C13.4846 16.6271 13.1399 16.696 12.8297 16.696C12.5885 16.696 12.3817 16.6615 12.1404 16.6271C12.5885 18.0747 13.9327 19.1087 15.5182 19.1432C14.2773 20.1082 12.7263 20.6942 11.0375 20.6942C10.7273 20.6942 10.4515 20.6597 10.1758 20.6252C11.7613 21.6592 13.6569 22.2452 15.725 22.2452C22.3771 22.2452 25.9961 16.7649 25.9961 11.974C25.9961 11.8017 25.9961 11.6638 25.9961 11.4915Z" fill="black"/>
</g>
<defs>
<filter id="filter0_d_341_645" x="0" y="0" width="38" height="38" filterUnits="userSpaceOnUse" color-interpolation-filters="sRGB">
<feFlood flood-opacity="0" result="BackgroundImageFix"/>
<feColorMatrix in="SourceAlpha" type="matrix" values="0 0 0 0 0 0 0 0 0 0 0 0 0 0 0 0 0 0 127 0" result="hardAlpha"/>
<feOffset dy="4"/>
<feGaussianBlur stdDeviation="2"/>
<feComposite in2="hardAlpha" operator="out"/>
<feColorMatrix type="matrix" values="0 0 0 0 0 0 0 0 0 0 0 0 0 0 0 0 0 0 0.25 0"/>
<feBlend mode="normal" in2="BackgroundImageFix" result="effect1_dropShadow_341_645"/>
<feBlend mode="normal" in="SourceGraphic" in2="effect1_dropShadow_341_645" result="shape"/>
</filter>
</defs>
</svg>
